<svg xmlns="http://www.w3.org/2000/svg" width="28" height="28" viewBox="0 0 28 28">
  <g id="Group_33395" data-name="Group 33395" transform="translate(-2025 1163)">
    <g id="Rectangle_17448" data-name="Rectangle 17448" transform="translate(2025 -1163)" fill="#aaa" stroke="#aaa" stroke-width="1" opacity="0">
      <rect width="28" height="28" stroke="none"/>
      <rect x="0.5" y="0.5" width="27" height="27" fill="none"/>
    </g>
    <g id="ic_ThongBao_28" transform="translate(-0.729 0.5)">
      <g id="Group_33393" data-name="Group 33393" transform="translate(1862 -1167.5)">
        <g id="ic_Notification" transform="translate(156.428 -1)">
          <g id="Group_26689">
            <path id="Union_9" data-name="Union 9" d="M-2032.528,1034.5h0a3.4,3.4,0,0,1-3.464-2.9h-4.835a2.647,2.647,0,0,1-2.6-2.6,2.581,2.581,0,0,1,2.4-2.593V1021.7a8.645,8.645,0,0,1,6.888-8.53,2.183,2.183,0,0,1-.488-1.37,2.276,2.276,0,0,1,.6-1.6,2.36,2.36,0,0,1,1.6-.7,2.308,2.308,0,0,1,2.2,2.3,2.419,2.419,0,0,1-.549,1.362,8.726,8.726,0,0,1,6.949,8.538v4.608a2.653,2.653,0,0,1,2.4,2.592,2.669,2.669,0,0,1-2.6,2.7h-4.734a3.406,3.406,0,0,1-3.466,2.9Zm.149-.994c.05,0,.1,0,.15-.006l.031,0a2.686,2.686,0,0,0,2.38-1.9h-5.122a2.685,2.685,0,0,0,2.38,1.9l.031,0C-2032.478,1033.5-2032.429,1033.506-2032.378,1033.506Zm8.35-2.906a1.58,1.58,0,0,0,1.6-1.6,2.074,2.074,0,0,0-.5-1.2,1.275,1.275,0,0,0-1.1-.5h-2.4a.472.472,0,0,1-.5-.5.473.473,0,0,1,.5-.5h1.6v-4.6a7.683,7.683,0,0,0-7.6-7.7,7.683,7.683,0,0,0-7.6,7.7v4.7h1.6a.473.473,0,0,1,.5.5.473.473,0,0,1-.5.5h-2.4a1.578,1.578,0,0,0-1.6,1.6,1.579,1.579,0,0,0,1.6,1.6h16.8Zm-8.4-17.6a1.156,1.156,0,0,0,1.2-1.2,1.3,1.3,0,0,0-1.2-1.3,1.221,1.221,0,0,0-.9.4,1.008,1.008,0,0,0-.3.9,1.156,1.156,0,0,0,1.2,1.2Z" transform="translate(2053.728 -1002.5)" fill="#aaa" stroke="#aaa" stroke-width="0.5"/>
            <path id="Path_59313" d="M31.8,26.5" fill="none" stroke="#aaa" stroke-linecap="round" stroke-linejoin="round" stroke-width="1"/>
          </g>
          <path id="Path_63237" data-name="Path 63237" d="M16,19.5a.472.472,0,0,1-.5-.5A4.754,4.754,0,0,1,17,15.4a4.91,4.91,0,0,1,3.6-1.5.5.5,0,0,1,0,1A4.118,4.118,0,0,0,16.5,19a.472.472,0,0,1-.5.5Z" fill="#aaa" stroke="#aaa" stroke-width="0.5"/>
        </g>
      </g>
    </g>
  </g>
</svg>
