<?xml version="1.0" encoding="utf-8"?>
<!-- Generator: Adobe Illustrator 23.0.0, SVG Export Plug-In . SVG Version: 6.00 Build 0)  -->
<svg version="1.1" id="Lich" xmlns="http://www.w3.org/2000/svg" xmlns:xlink="http://www.w3.org/1999/xlink" x="0px" y="0px"
	 viewBox="0 0 24 24" style="enable-background:new 0 0 24 24;" xml:space="preserve">
<style type="text/css">
	.st0{fill:#0FA655;}
</style>
<g id="Group_26890" transform="translate(-366.25 409.25)">
	<path class="st0" d="M385-388.5h-13.5c-1.5,0-2.8-1.2-2.8-2.8v-10.1c0-1.5,1.2-2.8,2.8-2.8H385c1.5,0,2.8,1.2,2.8,2.8v10.1
		C387.7-389.7,386.5-388.5,385-388.5z M371.5-402.6c-0.7,0-1.3,0.6-1.3,1.3v10.1c0,0.7,0.6,1.3,1.3,1.3H385c0.7,0,1.3-0.6,1.3-1.3
		v-10.1c0-0.7-0.6-1.3-1.3-1.3H371.5z"/>
	<path class="st0" d="M383.1-401.1c-0.4,0-0.8-0.3-0.8-0.8v-3.4c0-0.4,0.3-0.8,0.8-0.8s0.8,0.3,0.8,0.8v3.4
		C383.8-401.4,383.5-401.1,383.1-401.1z"/>
	<path class="st0" d="M373.4-401.1c-0.4,0-0.8-0.3-0.8-0.8v-3.4c0-0.4,0.3-0.8,0.8-0.8s0.8,0.3,0.8,0.8v3.4
		C374.2-401.4,373.8-401.1,373.4-401.1z"/>
	<path class="st0" d="M386.5-398.7H370c-0.4,0-0.8-0.3-0.8-0.8s0.3-0.8,0.8-0.8h16.5c0.4,0,0.8,0.3,0.8,0.8S386.9-398.7,386.5-398.7
		z"/>
	<path class="st0" d="M374.9-395.3h-1.9c-0.4,0-0.8-0.3-0.8-0.8s0.3-0.8,0.8-0.8h1.9c0.4,0,0.8,0.3,0.8,0.8S375.3-395.3,374.9-395.3
		z"/>
	<path class="st0" d="M379.2-395.3h-1.9c-0.4,0-0.8-0.3-0.8-0.8s0.3-0.8,0.8-0.8h1.9c0.4,0,0.8,0.3,0.8,0.8S379.6-395.3,379.2-395.3
		z"/>
	<path class="st0" d="M383.6-395.3h-1.9c-0.4,0-0.8-0.3-0.8-0.8s0.3-0.8,0.8-0.8h1.9c0.4,0,0.8,0.3,0.8,0.8S384-395.3,383.6-395.3z"
		/>
	<path class="st0" d="M374.9-391.9h-1.9c-0.4,0-0.8-0.3-0.8-0.8s0.3-0.8,0.8-0.8h1.9c0.4,0,0.8,0.3,0.8,0.8S375.3-391.9,374.9-391.9
		z"/>
	<path class="st0" d="M379.2-391.9h-1.9c-0.4,0-0.8-0.3-0.8-0.8s0.3-0.8,0.8-0.8h1.9c0.4,0,0.8,0.3,0.8,0.8S379.6-391.9,379.2-391.9
		z"/>
</g>
</svg>
